<?xml version="1.0" encoding="UTF-8" standalone="no"?>
<!-- Created with Inkscape (http://www.inkscape.org/) -->

<svg
   xmlns:dc="http://purl.org/dc/elements/1.1/"
   xmlns:cc="http://creativecommons.org/ns#"
   xmlns:rdf="http://www.w3.org/1999/02/22-rdf-syntax-ns#"
   xmlns:svg="http://www.w3.org/2000/svg"
   xmlns="http://www.w3.org/2000/svg"
   xmlns:inkscape="http://www.inkscape.org/namespaces/inkscape"
   version="1.1"
   width="4353.8184"
   height="931.77625"
   id="svg2"
   xml:space="preserve"><metadata
     id="metadata8"><rdf:RDF><cc:Work
         rdf:about=""><dc:format>image/svg+xml</dc:format><dc:type
           rdf:resource="http://purl.org/dc/dcmitype/StillImage" /></cc:Work></rdf:RDF></metadata><defs
     id="defs6"><clipPath
       id="clipPath12"><path
         d="m 0,0 4270,0 0,4270 L 0,4270 0,0 z"
         inkscape:connector-curvature="0"
         id="path14" /></clipPath><clipPath
       id="clipPath22"><path
         d="m 0.06,0 4269.91,0 0,4269.96 -4269.91,0 L 0.06,0 z"
         inkscape:connector-curvature="0"
         id="path24" /></clipPath></defs><g
     transform="matrix(1.25,0,0,-1.25,-500.62262,3123.1038)"
     clip-path="url(#clipPath12)"
     id="g10"><g
       id="g16" /><g
       id="g18"><g
         clip-path="url(#clipPath22)"
         id="g20"><path
           d="m 1100.62,1973.01 -31.75,0 0,274.12 31.75,0 0,-41.28 1.06,0 c 8.11,15.88 19.74,27.96 34.92,36.25 15.16,8.28 31.75,12.43 49.74,12.43 12.7,0 23.46,-1.41 32.29,-4.23 8.8,-2.82 16.31,-6.61 22.49,-11.37 6.16,-4.77 11.28,-10.33 15.34,-16.67 4.05,-6.35 7.49,-13.23 10.32,-20.64 9.17,17.99 21.43,31.3 36.78,39.95 15.34,8.64 32.89,12.96 52.65,12.96 18.7,0 33.61,-3.09 44.72,-9.25 11.11,-6.18 19.66,-14.29 25.66,-24.35 6,-10.05 9.97,-21.61 11.91,-34.66 1.93,-13.05 2.91,-26.46 2.91,-40.22 l 0,-173.04 -31.75,0 0,189.45 c 0,19.75 -4.15,35.27 -12.44,46.57 -8.29,11.28 -23.73,16.93 -46.3,16.93 -11.64,0 -22.85,-2.56 -33.6,-7.67 -10.77,-5.12 -20.2,-12.97 -28.31,-23.55 -3.54,-4.59 -6.45,-9.97 -8.74,-16.14 -2.3,-6.18 -4.15,-12.61 -5.55,-19.32 -1.42,-6.71 -2.39,-13.41 -2.91,-20.11 -0.54,-6.7 -0.8,-12.87 -0.8,-18.52 l 0,-147.64 -31.75,0 0,189.45 c 0,19.75 -4.15,35.27 -12.43,46.57 -8.29,11.28 -23.74,16.93 -46.31,16.93 -11.64,0 -22.84,-2.56 -33.6,-7.67 -10.76,-5.12 -20.2,-12.97 -28.32,-23.55 -3.52,-4.59 -6.44,-9.97 -8.72,-16.14 -2.3,-6.18 -4.15,-12.61 -5.56,-19.32 -1.42,-6.71 -2.38,-13.41 -2.91,-20.11 -0.53,-6.7 -0.79,-12.87 -0.79,-18.52 l 0,-147.64"
           inkscape:connector-curvature="0"
           id="path26"
           style="fill:#201d1c;fill-opacity:1;fill-rule:nonzero;stroke:none" /><path
           d="m 1522.9,2111.13 c 0,-16.59 2.02,-32.02 6.08,-46.31 4.05,-14.29 9.97,-26.64 17.74,-37.04 7.75,-10.41 17.46,-18.61 29.1,-24.6 11.64,-6.01 24.87,-9 39.69,-9 13.4,0 25.75,2.38 37.04,7.14 11.29,4.77 21.17,11.72 29.64,20.9 8.46,9.17 15.08,20.37 19.84,33.6 4.76,13.23 7.14,28.49 7.14,45.78 0.71,17.28 -0.7,33.42 -4.23,48.42 -3.53,15 -9.18,28.13 -16.93,39.43 -7.77,11.29 -17.73,20.19 -29.9,26.72 -12.18,6.53 -26.38,9.79 -42.6,9.79 -14.47,0 -27.44,-3.09 -38.9,-9.26 -11.46,-6.18 -21.17,-14.47 -29.1,-24.87 -7.94,-10.41 -14.02,-22.58 -18.26,-36.52 -4.23,-13.94 -6.35,-28.66 -6.35,-44.18 z m 0,-138.12 -31.75,0 0,381.01 31.75,0 0,-150.81 c 10.23,16.93 24.25,29.71 42.07,38.36 17.81,8.64 36.42,12.96 55.83,12.96 20.81,0 38.9,-3.96 54.24,-11.9 15.35,-7.94 28.05,-18.52 38.1,-31.75 10.06,-13.23 17.55,-28.67 22.49,-46.31 4.94,-17.64 7.41,-35.98 7.41,-55.03 0,-20.11 -2.3,-38.98 -6.88,-56.62 -4.59,-17.65 -11.91,-32.91 -21.96,-45.77 -10.06,-12.89 -22.84,-23.03 -38.36,-30.43 -15.54,-7.42 -34.4,-11.12 -56.63,-11.12 -8.82,0 -17.82,1.24 -26.99,3.7 -9.17,2.48 -18.08,6 -26.72,10.59 -8.65,4.58 -16.59,10.32 -23.81,17.2 -7.24,6.88 -13.15,14.89 -17.74,24.07 l -1.05,0 0,-48.15"
           inkscape:connector-curvature="0"
           id="path28"
           style="fill:#201d1c;fill-opacity:1;fill-rule:nonzero;stroke:none" /><path
           d="m 1963.71,2116.95 c -13.41,-5.65 -26.99,-9.36 -40.75,-11.12 -13.75,-1.76 -27.52,-3.17 -41.27,-4.23 -24.34,-1.76 -43.32,-7.23 -56.89,-16.4 -13.59,-9.18 -20.37,-23.11 -20.37,-41.81 0,-8.46 1.67,-15.79 5.02,-21.95 3.35,-6.18 7.75,-11.3 13.23,-15.35 5.47,-4.06 11.81,-7.06 19.05,-9 7.23,-1.94 14.56,-2.91 21.96,-2.91 12.7,0 25.05,1.58 37.04,4.77 11.99,3.17 22.67,8.01 32.02,14.55 9.34,6.51 16.84,14.81 22.49,24.86 5.64,10.06 8.47,21.97 8.47,35.72 l 0,42.87 z m -53.45,15.87 c 6,0.71 13.14,1.77 21.44,3.18 8.28,1.4 15.08,3.34 20.37,5.82 5.29,2.46 8.54,6.61 9.78,12.44 1.24,5.82 1.86,11.19 1.86,16.14 0,16.22 -5.21,29.54 -15.61,39.95 -10.41,10.4 -27.97,15.61 -52.66,15.61 -10.94,0 -20.99,-0.98 -30.15,-2.91 -9.18,-1.94 -17.2,-5.29 -24.09,-10.05 -6.88,-4.77 -12.52,-11.11 -16.93,-19.05 -4.42,-7.94 -7.33,-17.92 -8.73,-29.9 l -32.28,0 c 1.05,16.22 4.76,30.07 11.11,41.54 6.35,11.46 14.55,20.81 24.61,28.04 10.05,7.23 21.69,12.52 34.92,15.88 13.23,3.35 27.25,5.02 42.08,5.02 13.75,0 26.72,-1.5 38.89,-4.49 12.17,-3 22.75,-7.77 31.75,-14.29 9,-6.53 16.05,-15.26 21.17,-26.19 5.11,-10.94 7.67,-24.35 7.67,-40.22 l 0,-149.23 c 0,-12.36 2.2,-20.2 6.62,-23.55 4.4,-3.36 13.31,-2.56 26.72,2.39 l 0,-24.88 c -2.47,-0.72 -6.09,-1.77 -10.85,-3.18 -4.76,-1.4 -9.44,-2.11 -14.02,-2.11 -4.95,0 -9.71,0.52 -14.29,1.58 -5.3,0.71 -9.53,2.39 -12.7,5.03 -3.18,2.65 -5.74,5.82 -7.67,9.53 -1.95,3.7 -3.27,7.75 -3.97,12.17 -0.72,4.41 -1.06,9.08 -1.06,14.02 -13.41,-14.81 -28.76,-26.11 -46.04,-33.87 -17.29,-7.75 -35.99,-11.64 -56.1,-11.64 -11.99,0 -23.55,1.59 -34.66,4.76 -11.1,3.18 -20.9,8.11 -29.36,14.82 -8.48,6.7 -15.18,14.9 -20.11,24.61 -4.95,9.7 -7.41,21.25 -7.41,34.66 0,46.57 31.92,74.09 95.78,82.55 l 43.92,5.82"
           inkscape:connector-curvature="0"
           id="path30"
           style="fill:#201d1c;fill-opacity:1;fill-rule:nonzero;stroke:none" /><path
           d="m 2085.43,1973.01 -31.76,0 0,274.12 31.76,0 0,-51.33 1.05,0 c 8.81,21.87 20.2,37.12 34.13,45.77 13.94,8.64 32.37,12.96 55.3,12.96 l 0,-34.39 c -17.99,0.35 -32.81,-2.47 -44.45,-8.47 -11.64,-6 -20.9,-14.11 -27.78,-24.34 -6.88,-10.24 -11.64,-22.31 -14.28,-36.25 -2.65,-13.94 -3.97,-28.49 -3.97,-43.66 l 0,-134.41"
           inkscape:connector-curvature="0"
           id="path32"
           style="fill:#201d1c;fill-opacity:1;fill-rule:nonzero;stroke:none" /><path
           d="m 2396.05,2160.87 c -5.65,20.46 -15.34,36.42 -29.11,47.89 -13.75,11.46 -31.22,17.2 -52.38,17.2 -16.23,0 -30.17,-3.36 -41.81,-10.05 -11.64,-6.71 -21.17,-15.62 -28.57,-26.73 -7.42,-11.11 -12.89,-23.64 -16.41,-37.57 -3.53,-13.94 -5.29,-27.96 -5.29,-42.07 0,-14.47 1.67,-28.58 5.02,-42.33 3.35,-13.76 8.74,-26.12 16.14,-37.05 7.41,-10.94 16.94,-19.67 28.58,-26.19 11.64,-6.54 25.75,-9.79 42.34,-9.79 23.63,0 42.59,6.52 56.89,19.58 14.28,13.05 23.36,31.04 27.24,53.97 l 33.87,0 c -2.82,-15.17 -7.33,-29.01 -13.49,-41.54 -6.18,-12.52 -14.12,-23.28 -23.81,-32.27 -9.71,-9 -21.26,-15.97 -34.66,-20.91 -13.41,-4.94 -28.76,-7.41 -46.04,-7.41 -21.88,0 -40.75,3.7 -56.63,11.12 -15.87,7.4 -28.93,17.54 -39.15,30.43 -10.24,12.86 -17.83,28.12 -22.76,45.77 -4.95,17.64 -7.41,36.51 -7.41,56.62 0,19.05 2.73,37.31 8.2,54.77 5.46,17.46 13.49,32.89 24.08,46.3 10.58,13.41 23.72,24.08 39.42,32.02 15.7,7.94 33.79,11.9 54.25,11.9 31.75,0 57.41,-7.58 76.99,-22.75 19.58,-15.17 31.84,-38.81 36.78,-70.91 l -32.28,0"
           inkscape:connector-curvature="0"
           id="path34"
           style="fill:#201d1c;fill-opacity:1;fill-rule:nonzero;stroke:none" /><path
           d="m 2649.01,2116.95 c -13.41,-5.65 -26.99,-9.36 -40.75,-11.12 -13.76,-1.76 -27.52,-3.17 -41.28,-4.23 -24.33,-1.76 -43.31,-7.23 -56.88,-16.4 -13.59,-9.18 -20.37,-23.11 -20.37,-41.81 0,-8.46 1.66,-15.79 5.02,-21.95 3.35,-6.18 7.75,-11.3 13.23,-15.35 5.47,-4.06 11.81,-7.06 19.05,-9 7.22,-1.94 14.55,-2.91 21.96,-2.91 12.7,0 25.04,1.58 37.04,4.77 11.99,3.17 22.66,8.01 32.02,14.55 9.34,6.51 16.84,14.81 22.49,24.86 5.64,10.06 8.47,21.97 8.47,35.72 l 0,42.87 z m -53.46,15.87 c 6,0.71 13.14,1.77 21.44,3.18 8.29,1.4 15.08,3.34 20.38,5.82 5.29,2.46 8.54,6.61 9.78,12.44 1.23,5.82 1.86,11.19 1.86,16.14 0,16.22 -5.21,29.54 -15.61,39.95 -10.42,10.4 -27.97,15.61 -52.66,15.61 -10.94,0 -21,-0.98 -30.16,-2.91 -9.18,-1.94 -17.2,-5.29 -24.08,-10.05 -6.88,-4.77 -12.53,-11.11 -16.93,-19.05 -4.42,-7.94 -7.33,-17.92 -8.74,-29.9 l -32.27,0 c 1.05,16.22 4.75,30.07 11.11,41.54 6.35,11.46 14.55,20.81 24.61,28.04 10.05,7.23 21.69,12.52 34.92,15.88 13.23,3.35 27.25,5.02 42.07,5.02 13.76,0 26.73,-1.5 38.9,-4.49 12.17,-3 22.75,-7.77 31.75,-14.29 9,-6.53 16.05,-15.26 21.17,-26.19 5.11,-10.94 7.67,-24.35 7.67,-40.22 l 0,-149.23 c 0,-12.36 2.19,-20.2 6.62,-23.55 4.4,-3.36 13.31,-2.56 26.72,2.39 l 0,-24.88 c -2.48,-0.72 -6.09,-1.77 -10.85,-3.18 -4.76,-1.4 -9.44,-2.11 -14.03,-2.11 -4.94,0 -9.7,0.52 -14.29,1.58 -5.29,0.71 -9.52,2.39 -12.69,5.03 -3.18,2.65 -5.75,5.82 -7.68,9.53 -1.94,3.7 -3.27,7.75 -3.96,12.17 -0.72,4.41 -1.07,9.08 -1.07,14.02 -13.41,-14.81 -28.76,-26.11 -46.04,-33.87 -17.29,-7.75 -35.98,-11.64 -56.09,-11.64 -12,0 -23.55,1.59 -34.66,4.76 -11.11,3.18 -20.9,8.11 -29.37,14.82 -8.47,6.7 -15.18,14.9 -20.1,24.61 -4.95,9.7 -7.42,21.25 -7.42,34.66 0,46.57 31.93,74.09 95.78,82.55 l 43.92,5.82"
           inkscape:connector-curvature="0"
           id="path36"
           style="fill:#201d1c;fill-opacity:1;fill-rule:nonzero;stroke:none" /><path
           d="m 2949.05,2111.13 c 0,15.52 -2.12,30.24 -6.35,44.18 -4.23,13.94 -10.32,26.11 -18.26,36.52 -7.92,10.4 -17.64,18.69 -29.09,24.87 -11.47,6.17 -24.44,9.26 -38.9,9.26 -16.59,0 -30.88,-3.26 -42.86,-9.79 -12,-6.53 -21.89,-15.43 -29.64,-26.72 -7.76,-11.3 -13.41,-24.43 -16.93,-39.43 -3.54,-15 -4.95,-31.14 -4.23,-48.42 0,-17.29 2.37,-32.55 7.14,-45.78 4.76,-13.23 11.38,-24.43 19.84,-33.6 8.46,-9.18 18.34,-16.13 29.63,-20.9 11.29,-4.76 23.63,-7.14 37.05,-7.14 14.81,0 28.04,2.99 39.69,9 11.64,5.99 21.34,14.19 29.1,24.6 7.76,10.4 13.67,22.75 17.73,37.04 4.06,14.29 6.08,29.72 6.08,46.31 z m 0,242.89 31.76,0 0,-381.01 -31.76,0 0,48.15 -1.05,0 c -4.59,-9.18 -10.51,-17.19 -17.73,-24.07 -7.24,-6.88 -15.18,-12.62 -23.81,-17.2 -8.66,-4.59 -17.56,-8.11 -26.73,-10.59 -9.18,-2.46 -18.17,-3.7 -26.99,-3.7 -22.22,0 -41.1,3.7 -56.62,11.12 -15.53,7.4 -28.31,17.54 -38.36,30.43 -10.06,12.86 -17.38,28.12 -21.97,45.77 -4.58,17.64 -6.88,36.51 -6.88,56.62 0,19.05 2.47,37.39 7.42,55.03 4.93,17.64 12.43,33.08 22.49,46.31 10.05,13.23 22.75,23.81 38.09,31.75 15.35,7.94 33.43,11.9 54.24,11.9 19.4,0 38.02,-4.32 55.83,-12.96 17.82,-8.65 31.84,-21.43 42.07,-38.36 l 0,150.81"
           inkscape:connector-curvature="0"
           id="path38"
           style="fill:#201d1c;fill-opacity:1;fill-rule:nonzero;stroke:none" /><path
           d="m 3232.69,2129.12 c 0,13.4 -1.85,26.01 -5.55,37.83 -3.71,11.82 -9.18,22.05 -16.41,30.7 -7.24,8.64 -16.32,15.52 -27.25,20.64 -10.94,5.11 -23.46,7.67 -37.57,7.67 -14.12,0 -26.55,-2.65 -37.31,-7.94 -10.76,-5.29 -19.93,-12.35 -27.52,-21.16 -7.59,-8.83 -13.67,-19.06 -18.26,-30.69 -4.58,-11.65 -7.58,-24 -9,-37.05 l 178.87,0 z m -178.87,-26.46 c 0,-14.81 1.94,-28.84 5.83,-42.07 3.88,-13.23 9.61,-24.7 17.2,-34.4 7.59,-9.7 17.2,-17.46 28.84,-23.28 11.64,-5.82 25.04,-8.73 40.22,-8.73 20.81,0 38.63,5.46 53.44,16.4 14.82,10.94 24.7,26.46 29.64,46.57 l 35.45,0 c -3.89,-13.05 -9,-25.14 -15.34,-36.25 -6.35,-11.11 -14.29,-20.82 -23.81,-29.11 -9.53,-8.29 -20.83,-14.73 -33.87,-19.3 -13.06,-4.59 -28.23,-6.89 -45.51,-6.89 -21.89,0 -40.75,3.7 -56.63,11.12 -15.87,7.4 -28.93,17.54 -39.15,30.43 -10.24,12.86 -17.83,28.04 -22.76,45.5 -4.94,17.46 -7.41,36.25 -7.41,56.37 0,20.1 2.91,38.97 8.74,56.61 5.81,17.64 14.1,33.08 24.86,46.31 10.76,13.23 23.9,23.63 39.43,31.22 15.52,7.58 33.16,11.37 52.92,11.37 37.74,0 67.38,-12.96 88.9,-38.89 21.51,-25.93 32.1,-63.59 31.75,-112.98 l -212.74,0"
           inkscape:connector-curvature="0"
           id="path40"
           style="fill:#201d1c;fill-opacity:1;fill-rule:nonzero;stroke:none" /><path
           d="m 3335.36,1973.01 -31.75,0 0,274.12 31.75,0 0,-51.33 1.06,0 c 8.81,21.87 20.19,37.12 34.12,45.77 13.94,8.64 32.37,12.96 55.31,12.96 l 0,-34.39 c -17.99,0.35 -32.82,-2.47 -44.45,-8.47 -11.64,-6 -20.91,-14.11 -27.78,-24.34 -6.89,-10.24 -11.65,-22.31 -14.29,-36.25 -2.65,-13.94 -3.97,-28.49 -3.97,-43.66 l 0,-134.41"
           inkscape:connector-curvature="0"
           id="path42"
           style="fill:#201d1c;fill-opacity:1;fill-rule:nonzero;stroke:none" /><path
           d="m 3653.92,2110.07 c 0,16.23 -1.77,31.39 -5.3,45.51 -3.53,14.1 -8.99,26.37 -16.4,36.77 -7.41,10.41 -16.93,18.61 -28.58,24.62 -11.64,5.99 -25.92,8.99 -42.86,8.99 -16.59,0 -30.78,-3.26 -42.6,-9.79 -11.82,-6.53 -21.43,-15.17 -28.84,-25.93 -7.41,-10.76 -12.88,-23.11 -16.4,-37.04 -3.53,-13.95 -5.29,-28.32 -5.29,-43.13 0,-16.93 2.02,-32.54 6.08,-46.83 4.05,-14.29 9.97,-26.55 17.73,-36.78 7.76,-10.23 17.46,-18.17 29.11,-23.82 11.63,-5.64 25.03,-8.46 40.21,-8.46 16.58,0 30.77,3.25 42.6,9.79 11.82,6.52 21.43,15.25 28.84,26.19 7.41,10.93 12.87,23.29 16.4,37.05 3.53,13.75 5.3,28.04 5.3,42.86 z m -93.14,-144.47 c -17.64,0.36 -34.13,3.53 -49.47,9.53 -15.35,5.99 -28.76,14.99 -40.23,26.99 -11.46,11.98 -20.55,26.98 -27.25,44.98 -6.7,17.98 -10.05,38.97 -10.05,62.97 0,20.1 2.64,38.9 7.93,56.36 5.3,17.46 13.23,32.72 23.82,45.77 10.58,13.05 23.81,23.37 39.69,30.96 15.87,7.58 34.39,11.37 55.56,11.37 21.51,0 40.22,-3.79 56.09,-11.37 15.88,-7.59 29.11,-17.82 39.69,-30.69 10.59,-12.88 18.43,-28.14 23.55,-45.78 5.11,-17.64 7.68,-36.52 7.68,-56.62 0,-21.88 -3.01,-41.63 -9,-59.27 -6.01,-17.65 -14.55,-32.81 -25.66,-45.51 -11.12,-12.7 -24.53,-22.49 -40.23,-29.37 -15.7,-6.88 -33.07,-10.32 -52.12,-10.32"
           inkscape:connector-curvature="0"
           id="path44"
           style="fill:#201d1c;fill-opacity:1;fill-rule:nonzero;stroke:none" /><path
           d="m 3722.83,2225.42 c 1.55,0 3.24,0 5.07,0 1.84,0 3.56,0.22 5.14,0.64 1.59,0.42 2.89,1.2 3.92,2.33 1.02,1.13 1.53,2.82 1.53,5.08 0,1.76 -0.34,3.16 -1.01,4.18 -0.67,1.02 -1.53,1.8 -2.59,2.33 -1.06,0.53 -2.26,0.88 -3.6,1.06 -1.34,0.17 -2.68,0.26 -4.02,0.26 l -12.8,0 0,-15.88 8.36,0 z m 21.06,-24.97 -6.56,0 -12.81,20.64 -10.05,0 0,-20.64 -5.5,0 0,44.77 19.58,0 c 5.92,0 10.05,-1.06 12.38,-3.18 2.32,-2.11 3.48,-5.01 3.48,-8.68 0,-2.18 -0.35,-4.05 -1.05,-5.61 -0.7,-1.55 -1.69,-2.8 -2.96,-3.75 -1.28,-0.95 -2.77,-1.66 -4.5,-2.12 -1.73,-0.46 -3.58,-0.72 -5.56,-0.79 l 13.55,-20.64 z m -20,-12.49 c 4.87,0 9.36,0.9 13.49,2.7 4.13,1.79 7.68,4.27 10.64,7.4 2.96,3.15 5.29,6.84 6.98,11.07 1.69,4.23 2.54,8.82 2.54,13.76 0,4.86 -0.85,9.42 -2.54,13.65 -1.69,4.23 -4.02,7.9 -6.98,11.01 -2.96,3.1 -6.51,5.55 -10.64,7.35 -4.13,1.8 -8.62,2.7 -13.49,2.7 -4.88,0 -9.39,-0.9 -13.55,-2.7 -4.17,-1.8 -7.74,-4.25 -10.74,-7.35 -3,-3.11 -5.35,-6.78 -7.04,-11.01 -1.69,-4.23 -2.54,-8.79 -2.54,-13.65 0,-4.94 0.85,-9.53 2.54,-13.76 1.69,-4.23 4.04,-7.92 7.04,-11.07 3,-3.13 6.57,-5.61 10.74,-7.4 4.16,-1.8 8.67,-2.7 13.55,-2.7 z m 0,-5.29 c -5.58,0 -10.8,1.06 -15.67,3.17 -4.86,2.12 -9.11,4.99 -12.75,8.63 -3.64,3.63 -6.51,7.89 -8.62,12.75 -2.12,4.87 -3.18,10.09 -3.18,15.67 0,5.5 1.06,10.69 3.18,15.56 2.11,4.86 4.98,9.1 8.62,12.7 3.64,3.59 7.89,6.45 12.75,8.57 4.87,2.11 10.09,3.17 15.67,3.17 5.5,0 10.68,-1.06 15.56,-3.17 4.86,-2.12 9.11,-4.98 12.75,-8.57 3.63,-3.6 6.49,-7.84 8.57,-12.7 2.08,-4.87 3.13,-10.06 3.13,-15.56 0,-5.58 -1.05,-10.8 -3.13,-15.67 -2.08,-4.86 -4.94,-9.12 -8.57,-12.75 -3.64,-3.64 -7.89,-6.51 -12.75,-8.63 -4.88,-2.11 -10.06,-3.17 -15.56,-3.17"
           inkscape:connector-curvature="0"
           id="path46"
           style="fill:#201d1c;fill-opacity:1;fill-rule:nonzero;stroke:none" /><path
           d="m 758.101,2395.85 c 76.466,0 145.676,-31 195.795,-81.11 50.084,-50.11 81.104,-119.32 81.104,-195.8 0,-76.46 -31.02,-145.64 -81.104,-195.79 -50.119,-50.11 -119.329,-81.1 -195.795,-81.1 -76.455,0 -145.684,30.99 -195.789,81.1 -50.111,50.15 -81.115,119.33 -81.115,195.79 0,76.45 31.004,145.69 81.115,195.8 50.105,50.11 119.349,81.11 195.789,81.11"
           inkscape:connector-curvature="0"
           id="path48"
           style="fill:#ed1f35;fill-opacity:1;fill-rule:nonzero;stroke:none" /><path
           d="m 708.298,2205.13 c -12.079,-12.45 -19.664,-29.32 -22.771,-50.6 l 147.268,0 c -1.55,22.69 -9.144,39.9 -22.772,51.66 -13.629,11.74 -30.529,17.62 -50.699,17.62 -21.939,0 -38.947,-6.23 -51.026,-18.68 z m 127.886,73.84 c 22.798,-10.21 41.637,-26.33 56.499,-48.36 13.384,-19.43 22.064,-41.95 26.042,-67.59 2.302,-15.02 3.235,-36.65 2.818,-64.88 l -238.11,0 c 1.323,-32.8 12.723,-55.79 34.19,-68.99 13.048,-8.2 28.761,-12.3 47.129,-12.3 19.473,0 35.294,5 47.464,15 6.633,5.4 12.505,12.9 17.588,22.5 l 87.282,0 c -2.303,-19.4 -12.869,-39.1 -31.698,-59.09 -29.287,-31.8 -70.282,-47.69 -122.992,-47.69 -43.514,0 -81.899,13.41 -115.164,40.22 -33.256,26.82 -49.883,70.45 -49.883,130.89 0,56.63 15.014,100.07 45.036,130.28 30.02,30.22 68.994,45.34 116.912,45.34 28.453,0 54.079,-5.11 76.887,-15.33"
           inkscape:connector-curvature="0"
           id="path50"
           style="fill:#ffffff;fill-opacity:1;fill-rule:nonzero;stroke:none" /></g></g></g></svg>